<?xml version="1.0" encoding="UTF-8" standalone="no"?>
<svg
   xmlns:dc="http://purl.org/dc/elements/1.1/"
   xmlns:cc="http://creativecommons.org/ns#"
   xmlns:rdf="http://www.w3.org/1999/02/22-rdf-syntax-ns#"
   xmlns:svg="http://www.w3.org/2000/svg"
   xmlns="http://www.w3.org/2000/svg"
   width="16"
   height="16"
   viewBox="0 0 16 16"
   id="svg2"
   version="1.1">
  <defs
     id="defs4" />
  <metadata
     id="metadata7">
    <rdf:RDF>
      <cc:Work
         rdf:about="">
        <dc:format>image/svg+xml</dc:format>
        <dc:type
           rdf:resource="http://purl.org/dc/dcmitype/StillImage" />
        <dc:title></dc:title>
      </cc:Work>
    </rdf:RDF>
  </metadata>
  <path
     id="rect25048"
     d="M 2.5 1 C 1.669 1 1 1.669 1 2.5 L 1 13.5 C 1 14.331 1.669 15 2.5 15 L 13.5 15 C 14.331 15 15 14.331 15 13.5 L 15 2.5 C 15 1.669 14.331 1 13.5 1 L 2.5 1 z M 2.5 2 L 13.5 2 C 13.777 2 14 2.223 14 2.5 L 14 13.5 C 14 13.777 13.777 14 13.5 14 L 2.5 14 C 2.223 14 2 13.777 2 13.5 L 2 2.5 C 2 2.223 2.223 2 2.5 2 z M 3.5 3 C 3.223 3 3 3.223 3 3.5 L 3 12.5 C 3 12.777 3.223 13 3.5 13 L 12.5 13 C 12.777 13 13 12.777 13 12.5 L 13 3.5 C 13 3.223 12.777 3 12.5 3 L 3.5 3 z M 6 5 L 11 5 L 11 6 L 10 6 L 10 10 L 11 10 L 11 11 L 9 11 L 9 6 L 8 6 L 8 10 L 7 11 L 6 11 L 6 10 L 7 10 L 7 6 L 6 6 L 6 7 L 5 7 L 5 6 L 6 5 z "
     style="opacity:1;fill:#bebebe;fill-opacity:1;stroke:none;stroke-width:2;stroke-linecap:round;stroke-linejoin:round;stroke-miterlimit:4;stroke-dasharray:none;stroke-opacity:0.39215686" />
  <path
     id="rect25058"
     d="m 18.5,1.0000002 c -0.831,0 -1.5,0.669 -1.5,1.5 L 17,13.5 c 0,0.831 0.669,1.5 1.5,1.5 l 11,0 C 30.331,15 31,14.331 31,13.5 L 31,2.5000002 c 0,-0.831 -0.669,-1.5 -1.5,-1.5 l -11,0 z m 1,2 9,0 c 0.277,0 0.5,0.223 0.5,0.5 L 29,12.5 c 0,0.277 -0.223,0.5 -0.5,0.5 l -9,0 C 19.223,13 19,12.777 19,12.5 l 0,-8.9999998 c 0,-0.277 0.223,-0.5 0.5,-0.5 z"
     style="opacity:1;fill:#bebebe;fill-opacity:1;stroke:none;stroke-width:2;stroke-linecap:round;stroke-linejoin:round;stroke-miterlimit:4;stroke-dasharray:none;stroke-opacity:0.39215686" />
  <rect
     ry="0.5"
     rx="0.5"
     y="3.9999828"
     x="20"
     height="8.0000172"
     width="8"
     id="rect25062"
     style="opacity:1;fill:#bebebe;fill-opacity:1;stroke:none;stroke-width:2;stroke-linecap:round;stroke-linejoin:round;stroke-miterlimit:4;stroke-dasharray:none;stroke-opacity:0.39215686" />
  <path
     style="opacity:1;fill:#ffffff;fill-opacity:1;stroke:none;stroke-width:2;stroke-linecap:round;stroke-linejoin:round;stroke-miterlimit:4;stroke-dasharray:none;stroke-opacity:0.39215686"
     d="m 22,5.0000002 -1,1 0,1 1,0 0,-1 1,0 L 23,10 l -1,0 0,1 1,0 1,-1 0,-3.9999998 1,0 L 25,11 l 2,0 0,-1 -1,0 0,-3.9999998 1,0 0,-1 z"
     id="path25065" />
  <path
     id="path25067"
     d="M 34.5 1 C 33.669 1 33 1.669 33 2.5 L 33 13.5 C 33 14.331 33.669 15 34.5 15 L 45.5 15 C 46.331 15 47 14.331 47 13.5 L 47 2.5 C 47 1.669 46.331 1 45.5 1 L 34.5 1 z M 35.5 3 L 44.5 3 C 44.777 3 45 3.223 45 3.5 L 45 12.5 C 45 12.777 44.777 13 44.5 13 L 35.5 13 C 35.223 13 35 12.777 35 12.5 L 35 3.5 C 35 3.223 35.223 3 35.5 3 z M 38 5 L 37 6 L 37 7 L 38 7 L 38 6 L 39 6 L 39 10 L 38 10 L 38 11 L 39 11 L 40 10 L 40 6 L 41 6 L 41 11 L 43 11 L 43 10 L 42 10 L 42 6 L 43 6 L 43 5 L 38 5 z "
     style="opacity:1;fill:#bebebe;fill-opacity:1;stroke:none;stroke-width:2;stroke-linecap:round;stroke-linejoin:round;stroke-miterlimit:4;stroke-dasharray:none;stroke-opacity:0.39215686" />
</svg>
