<?xml version="1.0" encoding="UTF-8" standalone="no"?>
<svg
   xmlns:dc="http://purl.org/dc/elements/1.1/"
   xmlns:cc="http://creativecommons.org/ns#"
   xmlns:rdf="http://www.w3.org/1999/02/22-rdf-syntax-ns#"
   xmlns:svg="http://www.w3.org/2000/svg"
   xmlns="http://www.w3.org/2000/svg"
   xmlns:xlink="http://www.w3.org/1999/xlink"
   version="1.1"
   id="svg2"
   viewBox="0 0 16 16"
   height="16"
   width="16">
  <defs
     id="defs4">
    <linearGradient
       id="linearGradient4761">
      <stop
         id="stop4763"
         offset="0"
         style="stop-color:#776a61;stop-opacity:1" />
      <stop
         id="stop4765"
         offset="1"
         style="stop-color:#5d544f;stop-opacity:1" />
    </linearGradient>
    <linearGradient
       gradientTransform="matrix(0.23636364,0,0,0.23636364,1036.7986,-249.17652)"
       gradientUnits="userSpaceOnUse"
       y2="1020.3622"
       x2="59.5"
       y1="1020.3622"
       x1="4.5"
       id="linearGradient4767"
       xlink:href="#linearGradient4761" />
  </defs>
  <metadata
     id="metadata7">
    <rdf:RDF>
      <cc:Work
         rdf:about="">
        <dc:format>image/svg+xml</dc:format>
        <dc:type
           rdf:resource="http://purl.org/dc/dcmitype/StillImage" />
        <dc:title></dc:title>
      </cc:Work>
    </rdf:RDF>
  </metadata>
  <g
     transform="translate(0,-1036.3622)"
     id="layer1">
    <rect
       transform="matrix(0,1,-1,0,0,0)"
       ry="1"
       rx="1"
       y="-14.5"
       x="1037.8622"
       height="13"
       width="13"
       id="rect4759"
       style="opacity:1;fill:url(#linearGradient4767);fill-opacity:1;stroke:none;stroke-width:1;stroke-miterlimit:4;stroke-dasharray:none;stroke-opacity:1" />
    <rect
       rx="1"
       ry="1"
       y="1037.8622"
       x="1.5"
       height="13"
       width="13"
       id="rect4169"
       style="opacity:0.79000005;fill:none;fill-opacity:0;stroke:#31221b;stroke-width:1;stroke-miterlimit:4;stroke-dasharray:none;stroke-opacity:1" />
    <rect
       style="opacity:1;fill:#3b653d;fill-opacity:1;stroke:none;stroke-width:1;stroke-linecap:round;stroke-linejoin:round;stroke-miterlimit:4;stroke-dasharray:none;stroke-opacity:1"
       id="rect4796"
       width="9"
       height="9"
       x="3.4999981"
       y="1039.8622" />
    <rect
       y="1039.8622"
       x="3.4999981"
       height="9"
       width="9"
       id="rect4794"
       style="opacity:0.79000005;fill:none;fill-opacity:1;stroke:#222222;stroke-width:1;stroke-linecap:round;stroke-linejoin:round;stroke-miterlimit:4;stroke-dasharray:none;stroke-opacity:1" />
    <path
       id="rect24786"
       transform="translate(0,1036.3622)"
       d="m 6,5 -1,1 0,1 1,0 0,-1 1,0 0,4 -1,0 0,1 1,0 1,-1 0,-4 1,0 0,5 2,0 0,-1 -1,0 0,-4 1,0 0,-1 z"
       style="opacity:1;fill:#ffffff;fill-opacity:1;stroke:none;stroke-width:2;stroke-linecap:round;stroke-linejoin:round;stroke-miterlimit:4;stroke-dasharray:none;stroke-opacity:0.39215686" />
  </g>
</svg>
